<mxfile host="app.diagrams.net" modified="2023-10-22T05:35:35.020Z" agent="Mozilla/5.0 (Windows NT 10.0; Win64; x64) AppleWebKit/537.36 (KHTML, like Gecko) Chrome/118.0.0.0 Safari/537.36" etag="hPh1T7iSXfskxNeAZFRO" version="22.0.5" type="github">
  <diagram name="第 1 页" id="0EaVLbxpuTTUr8ozUknE">
    <mxGraphModel dx="1236" dy="629" grid="1" gridSize="10" guides="1" tooltips="1" connect="1" arrows="1" fold="1" page="1" pageScale="1" pageWidth="827" pageHeight="1169" math="0" shadow="0">
      <root>
        <mxCell id="0" />
        <mxCell id="1" parent="0" />
        <mxCell id="m1qSQdhehXiYdSPG6T---71" value="" style="rounded=0;whiteSpace=wrap;html=1;" vertex="1" parent="1">
          <mxGeometry x="30" y="40" width="950" height="490" as="geometry" />
        </mxCell>
        <mxCell id="m1qSQdhehXiYdSPG6T---7" value="" style="ellipse;whiteSpace=wrap;html=1;" vertex="1" parent="1">
          <mxGeometry x="230" y="170" width="80" height="180" as="geometry" />
        </mxCell>
        <mxCell id="m1qSQdhehXiYdSPG6T---8" value="" style="edgeStyle=orthogonalEdgeStyle;rounded=0;orthogonalLoop=1;jettySize=auto;html=1;" edge="1" parent="1" source="m1qSQdhehXiYdSPG6T---1" target="m1qSQdhehXiYdSPG6T---7">
          <mxGeometry relative="1" as="geometry" />
        </mxCell>
        <mxCell id="m1qSQdhehXiYdSPG6T---1" value="&lt;font style=&quot;font-size: 17px;&quot;&gt;...&lt;/font&gt;" style="rounded=0;whiteSpace=wrap;html=1;" vertex="1" parent="1">
          <mxGeometry x="70" y="140" width="70" height="240" as="geometry" />
        </mxCell>
        <mxCell id="m1qSQdhehXiYdSPG6T---2" value="" style="ellipse;whiteSpace=wrap;html=1;aspect=fixed;fillColor=#fff2cc;strokeColor=#d6b656;" vertex="1" parent="1">
          <mxGeometry x="265" y="210" width="10" height="10" as="geometry" />
        </mxCell>
        <mxCell id="m1qSQdhehXiYdSPG6T---3" value="" style="ellipse;whiteSpace=wrap;html=1;aspect=fixed;fillColor=#fff2cc;strokeColor=#d6b656;" vertex="1" parent="1">
          <mxGeometry x="250" y="230" width="10" height="10" as="geometry" />
        </mxCell>
        <mxCell id="m1qSQdhehXiYdSPG6T---4" value="" style="ellipse;whiteSpace=wrap;html=1;aspect=fixed;fillColor=#fff2cc;strokeColor=#d6b656;" vertex="1" parent="1">
          <mxGeometry x="290" y="240" width="10" height="10" as="geometry" />
        </mxCell>
        <mxCell id="m1qSQdhehXiYdSPG6T---5" value="" style="ellipse;whiteSpace=wrap;html=1;aspect=fixed;fillColor=#fff2cc;strokeColor=#d6b656;" vertex="1" parent="1">
          <mxGeometry x="280" y="290" width="10" height="10" as="geometry" />
        </mxCell>
        <mxCell id="m1qSQdhehXiYdSPG6T---6" value="&lt;font style=&quot;font-size: 14px;&quot;&gt;Traffic dataset&lt;/font&gt;" style="text;html=1;strokeColor=none;fillColor=none;align=center;verticalAlign=middle;whiteSpace=wrap;rounded=0;" vertex="1" parent="1">
          <mxGeometry x="75" y="390" width="60" height="30" as="geometry" />
        </mxCell>
        <mxCell id="m1qSQdhehXiYdSPG6T---9" value="&lt;font style=&quot;font-size: 14px;&quot;&gt;Element to pair and get batch composed of pairs&amp;nbsp;&lt;/font&gt;" style="text;html=1;strokeColor=none;fillColor=none;align=center;verticalAlign=middle;whiteSpace=wrap;rounded=0;" vertex="1" parent="1">
          <mxGeometry x="150" y="160" width="70" height="100" as="geometry" />
        </mxCell>
        <mxCell id="m1qSQdhehXiYdSPG6T---18" value="" style="ellipse;whiteSpace=wrap;html=1;aspect=fixed;fillColor=#fff2cc;strokeColor=#d6b656;" vertex="1" parent="1">
          <mxGeometry x="265" y="260" width="10" height="10" as="geometry" />
        </mxCell>
        <mxCell id="m1qSQdhehXiYdSPG6T---19" value="" style="ellipse;whiteSpace=wrap;html=1;aspect=fixed;fillColor=#fff2cc;strokeColor=#d6b656;" vertex="1" parent="1">
          <mxGeometry x="250" y="300" width="10" height="10" as="geometry" />
        </mxCell>
        <mxCell id="m1qSQdhehXiYdSPG6T---20" value="" style="whiteSpace=wrap;html=1;aspect=fixed;fillColor=#d5e8d4;strokeColor=#82b366;" vertex="1" parent="1">
          <mxGeometry x="100" y="160" width="10" height="10" as="geometry" />
        </mxCell>
        <mxCell id="m1qSQdhehXiYdSPG6T---21" value="" style="whiteSpace=wrap;html=1;aspect=fixed;fillColor=#d5e8d4;strokeColor=#82b366;" vertex="1" parent="1">
          <mxGeometry x="100" y="180" width="10" height="10" as="geometry" />
        </mxCell>
        <mxCell id="m1qSQdhehXiYdSPG6T---23" value="" style="whiteSpace=wrap;html=1;aspect=fixed;fillColor=#d5e8d4;strokeColor=#82b366;" vertex="1" parent="1">
          <mxGeometry x="100" y="200" width="10" height="10" as="geometry" />
        </mxCell>
        <mxCell id="m1qSQdhehXiYdSPG6T---25" value="" style="whiteSpace=wrap;html=1;aspect=fixed;fillColor=#d5e8d4;strokeColor=#82b366;" vertex="1" parent="1">
          <mxGeometry x="100" y="220" width="10" height="10" as="geometry" />
        </mxCell>
        <mxCell id="m1qSQdhehXiYdSPG6T---26" value="" style="endArrow=classic;html=1;rounded=0;exitX=1;exitY=1;exitDx=0;exitDy=0;" edge="1" parent="1" source="m1qSQdhehXiYdSPG6T---4">
          <mxGeometry width="50" height="50" relative="1" as="geometry">
            <mxPoint x="360" y="340" as="sourcePoint" />
            <mxPoint x="360" y="250" as="targetPoint" />
          </mxGeometry>
        </mxCell>
        <mxCell id="m1qSQdhehXiYdSPG6T---27" value="" style="ellipse;whiteSpace=wrap;html=1;aspect=fixed;fillColor=#fff2cc;strokeColor=#d6b656;" vertex="1" parent="1">
          <mxGeometry x="360" y="210" width="80" height="80" as="geometry" />
        </mxCell>
        <mxCell id="m1qSQdhehXiYdSPG6T---30" value="" style="whiteSpace=wrap;html=1;aspect=fixed;fillColor=#d5e8d4;strokeColor=#82b366;" vertex="1" parent="1">
          <mxGeometry x="414" y="246" width="14" height="14" as="geometry" />
        </mxCell>
        <mxCell id="m1qSQdhehXiYdSPG6T---31" value="" style="whiteSpace=wrap;html=1;aspect=fixed;fillColor=#d5e8d4;strokeColor=#82b366;" vertex="1" parent="1">
          <mxGeometry x="370" y="246" width="14" height="14" as="geometry" />
        </mxCell>
        <mxCell id="m1qSQdhehXiYdSPG6T---33" value="" style="endArrow=classic;html=1;rounded=0;" edge="1" parent="1">
          <mxGeometry width="50" height="50" relative="1" as="geometry">
            <mxPoint x="420" y="260" as="sourcePoint" />
            <mxPoint x="420" y="330" as="targetPoint" />
          </mxGeometry>
        </mxCell>
        <mxCell id="m1qSQdhehXiYdSPG6T---34" value="" style="endArrow=classic;html=1;rounded=0;" edge="1" parent="1">
          <mxGeometry width="50" height="50" relative="1" as="geometry">
            <mxPoint x="377" y="260" as="sourcePoint" />
            <mxPoint x="377" y="420" as="targetPoint" />
          </mxGeometry>
        </mxCell>
        <mxCell id="m1qSQdhehXiYdSPG6T---36" value="" style="whiteSpace=wrap;html=1;aspect=fixed;" vertex="1" parent="1">
          <mxGeometry x="405" y="332" width="18" height="18" as="geometry" />
        </mxCell>
        <mxCell id="m1qSQdhehXiYdSPG6T---37" value="" style="whiteSpace=wrap;html=1;aspect=fixed;fillColor=#dae8fc;strokeColor=#6c8ebf;" vertex="1" parent="1">
          <mxGeometry x="422" y="332" width="18" height="18" as="geometry" />
        </mxCell>
        <mxCell id="m1qSQdhehXiYdSPG6T---38" value="" style="whiteSpace=wrap;html=1;aspect=fixed;fillColor=#ffe6cc;strokeColor=#d79b00;" vertex="1" parent="1">
          <mxGeometry x="440" y="332" width="18" height="18" as="geometry" />
        </mxCell>
        <mxCell id="m1qSQdhehXiYdSPG6T---39" value="" style="whiteSpace=wrap;html=1;aspect=fixed;fillColor=#f8cecc;strokeColor=#b85450;" vertex="1" parent="1">
          <mxGeometry x="405" y="332" width="18" height="18" as="geometry" />
        </mxCell>
        <mxCell id="m1qSQdhehXiYdSPG6T---40" value="" style="whiteSpace=wrap;html=1;aspect=fixed;fillColor=#e1d5e7;strokeColor=#9673a6;" vertex="1" parent="1">
          <mxGeometry x="458" y="332" width="18" height="18" as="geometry" />
        </mxCell>
        <mxCell id="m1qSQdhehXiYdSPG6T---42" value="" style="whiteSpace=wrap;html=1;aspect=fixed;" vertex="1" parent="1">
          <mxGeometry x="362" y="420" width="18" height="18" as="geometry" />
        </mxCell>
        <mxCell id="m1qSQdhehXiYdSPG6T---43" value="" style="whiteSpace=wrap;html=1;aspect=fixed;fillColor=#dae8fc;strokeColor=#6c8ebf;" vertex="1" parent="1">
          <mxGeometry x="379" y="420" width="18" height="18" as="geometry" />
        </mxCell>
        <mxCell id="m1qSQdhehXiYdSPG6T---44" value="" style="whiteSpace=wrap;html=1;aspect=fixed;fillColor=#ffe6cc;strokeColor=#d79b00;" vertex="1" parent="1">
          <mxGeometry x="397" y="420" width="18" height="18" as="geometry" />
        </mxCell>
        <mxCell id="m1qSQdhehXiYdSPG6T---45" value="" style="whiteSpace=wrap;html=1;aspect=fixed;fillColor=#f8cecc;strokeColor=#b85450;" vertex="1" parent="1">
          <mxGeometry x="362" y="420" width="18" height="18" as="geometry" />
        </mxCell>
        <mxCell id="m1qSQdhehXiYdSPG6T---46" value="" style="whiteSpace=wrap;html=1;aspect=fixed;fillColor=#e1d5e7;strokeColor=#9673a6;" vertex="1" parent="1">
          <mxGeometry x="415" y="420" width="18" height="18" as="geometry" />
        </mxCell>
        <mxCell id="m1qSQdhehXiYdSPG6T---48" value="&lt;font style=&quot;font-size: 14px;&quot;&gt;CRITIC get features weight&lt;/font&gt;" style="text;html=1;strokeColor=none;fillColor=none;align=center;verticalAlign=middle;whiteSpace=wrap;rounded=0;" vertex="1" parent="1">
          <mxGeometry x="384" y="370" width="100" height="30" as="geometry" />
        </mxCell>
        <mxCell id="m1qSQdhehXiYdSPG6T---49" value="" style="endArrow=classic;html=1;rounded=0;exitX=1;exitY=0.5;exitDx=0;exitDy=0;" edge="1" parent="1" source="m1qSQdhehXiYdSPG6T---40">
          <mxGeometry width="50" height="50" relative="1" as="geometry">
            <mxPoint x="240" y="530" as="sourcePoint" />
            <mxPoint x="530" y="370" as="targetPoint" />
          </mxGeometry>
        </mxCell>
        <mxCell id="m1qSQdhehXiYdSPG6T---50" value="" style="endArrow=classic;html=1;rounded=0;exitX=1;exitY=0.5;exitDx=0;exitDy=0;" edge="1" parent="1" source="m1qSQdhehXiYdSPG6T---46">
          <mxGeometry width="50" height="50" relative="1" as="geometry">
            <mxPoint x="440" y="460" as="sourcePoint" />
            <mxPoint x="530" y="390" as="targetPoint" />
          </mxGeometry>
        </mxCell>
        <mxCell id="m1qSQdhehXiYdSPG6T---51" value="&lt;font style=&quot;font-size: 14px;&quot;&gt;distence between the two traffic&lt;/font&gt;" style="text;html=1;strokeColor=none;fillColor=none;align=center;verticalAlign=middle;whiteSpace=wrap;rounded=0;" vertex="1" parent="1">
          <mxGeometry x="530" y="365" width="80" height="40" as="geometry" />
        </mxCell>
        <mxCell id="m1qSQdhehXiYdSPG6T---52" value="" style="endArrow=classic;html=1;rounded=0;exitX=1;exitY=0.5;exitDx=0;exitDy=0;" edge="1" parent="1" source="m1qSQdhehXiYdSPG6T---51">
          <mxGeometry width="50" height="50" relative="1" as="geometry">
            <mxPoint x="570" y="520" as="sourcePoint" />
            <mxPoint x="750" y="385" as="targetPoint" />
          </mxGeometry>
        </mxCell>
        <mxCell id="m1qSQdhehXiYdSPG6T---53" value="&lt;font style=&quot;font-size: 14px;&quot;&gt;t-distribution kernel function&lt;/font&gt;" style="text;html=1;strokeColor=none;fillColor=none;align=center;verticalAlign=middle;whiteSpace=wrap;rounded=0;" vertex="1" parent="1">
          <mxGeometry x="630" y="350" width="100" height="30" as="geometry" />
        </mxCell>
        <mxCell id="m1qSQdhehXiYdSPG6T---54" value="&lt;font style=&quot;font-size: 14px;&quot;&gt;Similarity&lt;/font&gt;" style="text;html=1;strokeColor=none;fillColor=none;align=center;verticalAlign=middle;whiteSpace=wrap;rounded=0;" vertex="1" parent="1">
          <mxGeometry x="750" y="370" width="60" height="30" as="geometry" />
        </mxCell>
        <mxCell id="m1qSQdhehXiYdSPG6T---62" value="" style="edgeStyle=orthogonalEdgeStyle;rounded=0;orthogonalLoop=1;jettySize=auto;html=1;" edge="1" parent="1" source="m1qSQdhehXiYdSPG6T---55" target="m1qSQdhehXiYdSPG6T---60">
          <mxGeometry relative="1" as="geometry" />
        </mxCell>
        <mxCell id="m1qSQdhehXiYdSPG6T---55" value="&lt;font style=&quot;font-size: 14px;&quot;&gt;Encoder&lt;/font&gt;" style="rounded=0;whiteSpace=wrap;html=1;fillColor=#cce5ff;strokeColor=#36393d;" vertex="1" parent="1">
          <mxGeometry x="510" y="130" width="180" height="60" as="geometry" />
        </mxCell>
        <mxCell id="m1qSQdhehXiYdSPG6T---63" value="" style="edgeStyle=orthogonalEdgeStyle;rounded=0;orthogonalLoop=1;jettySize=auto;html=1;" edge="1" parent="1" source="m1qSQdhehXiYdSPG6T---56" target="m1qSQdhehXiYdSPG6T---61">
          <mxGeometry relative="1" as="geometry" />
        </mxCell>
        <mxCell id="m1qSQdhehXiYdSPG6T---56" value="&lt;font style=&quot;font-size: 14px;&quot;&gt;Encoder&lt;/font&gt;" style="rounded=0;whiteSpace=wrap;html=1;fillColor=#cce5ff;strokeColor=#36393d;" vertex="1" parent="1">
          <mxGeometry x="510" y="223" width="180" height="60" as="geometry" />
        </mxCell>
        <mxCell id="m1qSQdhehXiYdSPG6T---57" value="" style="endArrow=classic;html=1;rounded=0;exitX=0.5;exitY=0;exitDx=0;exitDy=0;entryX=0;entryY=0.5;entryDx=0;entryDy=0;" edge="1" parent="1" source="m1qSQdhehXiYdSPG6T---31" target="m1qSQdhehXiYdSPG6T---55">
          <mxGeometry width="50" height="50" relative="1" as="geometry">
            <mxPoint x="310" y="90" as="sourcePoint" />
            <mxPoint x="360" y="40" as="targetPoint" />
          </mxGeometry>
        </mxCell>
        <mxCell id="m1qSQdhehXiYdSPG6T---58" value="" style="endArrow=classic;html=1;rounded=0;exitX=1;exitY=0.5;exitDx=0;exitDy=0;entryX=0;entryY=0.5;entryDx=0;entryDy=0;" edge="1" parent="1" source="m1qSQdhehXiYdSPG6T---30" target="m1qSQdhehXiYdSPG6T---56">
          <mxGeometry width="50" height="50" relative="1" as="geometry">
            <mxPoint x="310" y="130" as="sourcePoint" />
            <mxPoint x="360" y="80" as="targetPoint" />
          </mxGeometry>
        </mxCell>
        <mxCell id="m1qSQdhehXiYdSPG6T---59" value="&lt;font style=&quot;font-size: 14px;&quot;&gt;Shared Weight&lt;/font&gt;" style="text;html=1;strokeColor=none;fillColor=none;align=center;verticalAlign=middle;whiteSpace=wrap;rounded=0;" vertex="1" parent="1">
          <mxGeometry x="530" y="190" width="140" height="30" as="geometry" />
        </mxCell>
        <mxCell id="m1qSQdhehXiYdSPG6T---60" value="&lt;font style=&quot;font-size: 14px;&quot;&gt;Representation i&lt;/font&gt;" style="text;html=1;strokeColor=none;fillColor=none;align=center;verticalAlign=middle;whiteSpace=wrap;rounded=0;" vertex="1" parent="1">
          <mxGeometry x="740" y="145" width="120" height="30" as="geometry" />
        </mxCell>
        <mxCell id="m1qSQdhehXiYdSPG6T---61" value="&lt;font style=&quot;font-size: 14px;&quot;&gt;Representation j&lt;/font&gt;" style="text;html=1;strokeColor=none;fillColor=none;align=center;verticalAlign=middle;whiteSpace=wrap;rounded=0;" vertex="1" parent="1">
          <mxGeometry x="740" y="238" width="120" height="30" as="geometry" />
        </mxCell>
        <mxCell id="m1qSQdhehXiYdSPG6T---64" value="&lt;font style=&quot;font-size: 14px;&quot;&gt;Cosine Similarity&lt;/font&gt;" style="text;html=1;strokeColor=none;fillColor=none;align=center;verticalAlign=middle;whiteSpace=wrap;rounded=0;" vertex="1" parent="1">
          <mxGeometry x="870" y="195" width="60" height="30" as="geometry" />
        </mxCell>
        <mxCell id="m1qSQdhehXiYdSPG6T---65" value="" style="endArrow=classic;html=1;rounded=0;exitX=1;exitY=0.5;exitDx=0;exitDy=0;" edge="1" parent="1" source="m1qSQdhehXiYdSPG6T---60">
          <mxGeometry width="50" height="50" relative="1" as="geometry">
            <mxPoint x="880" y="350" as="sourcePoint" />
            <mxPoint x="890" y="190" as="targetPoint" />
          </mxGeometry>
        </mxCell>
        <mxCell id="m1qSQdhehXiYdSPG6T---66" value="" style="endArrow=classic;html=1;rounded=0;exitX=1;exitY=0.5;exitDx=0;exitDy=0;" edge="1" parent="1" source="m1qSQdhehXiYdSPG6T---61">
          <mxGeometry width="50" height="50" relative="1" as="geometry">
            <mxPoint x="920" y="350" as="sourcePoint" />
            <mxPoint x="890" y="230" as="targetPoint" />
          </mxGeometry>
        </mxCell>
        <mxCell id="m1qSQdhehXiYdSPG6T---67" value="" style="endArrow=classic;startArrow=classic;html=1;rounded=0;exitX=1;exitY=0.5;exitDx=0;exitDy=0;" edge="1" parent="1" source="m1qSQdhehXiYdSPG6T---54">
          <mxGeometry width="50" height="50" relative="1" as="geometry">
            <mxPoint x="860" y="420" as="sourcePoint" />
            <mxPoint x="910" y="230" as="targetPoint" />
            <Array as="points">
              <mxPoint x="910" y="385" />
            </Array>
          </mxGeometry>
        </mxCell>
        <mxCell id="m1qSQdhehXiYdSPG6T---68" value="&lt;font style=&quot;font-size: 14px;&quot;&gt;Batch&lt;/font&gt;" style="text;html=1;strokeColor=none;fillColor=none;align=center;verticalAlign=middle;whiteSpace=wrap;rounded=0;" vertex="1" parent="1">
          <mxGeometry x="240" y="140" width="60" height="30" as="geometry" />
        </mxCell>
        <mxCell id="m1qSQdhehXiYdSPG6T---69" value="N" style="text;html=1;strokeColor=none;fillColor=none;align=center;verticalAlign=middle;whiteSpace=wrap;rounded=0;" vertex="1" parent="1">
          <mxGeometry x="240" y="320" width="60" height="30" as="geometry" />
        </mxCell>
        <mxCell id="m1qSQdhehXiYdSPG6T---70" value="&lt;font style=&quot;font-size: 14px;&quot;&gt;continuous version of the cross-entropy loss&lt;/font&gt;" style="text;html=1;strokeColor=none;fillColor=none;align=center;verticalAlign=middle;whiteSpace=wrap;rounded=0;" vertex="1" parent="1">
          <mxGeometry x="810" y="300" width="100" height="60" as="geometry" />
        </mxCell>
      </root>
    </mxGraphModel>
  </diagram>
</mxfile>
